<svg xmlns="http://www.w3.org/2000/svg" xmlns:xlink="http://www.w3.org/1999/xlink" width="800" zoomAndPan="magnify" viewBox="0 0 600 86.249997" height="115" preserveAspectRatio="xMidYMid meet" version="1.0"><defs><g/></defs><g fill="#ffff00" fill-opacity="1"><g transform="translate(4.891744, 74.285472)"><g><path d="M 36.542969 -36.902344 L 11.285156 -65.023438 L 7.164062 -65.023438 L 7.164062 0 L 20.152344 0 L 20.152344 -35.738281 L 36.542969 -18.539062 L 52.933594 -35.738281 L 52.84375 0 L 65.832031 0 L 65.832031 -65.023438 L 61.800781 -65.023438 Z M 36.542969 -36.902344 "/></g></g></g><g fill="#ffff00" fill-opacity="1"><g transform="translate(77.975474, 74.285472)"><g><path d="M 37.976562 0.894531 C 82.042969 0.894531 82.042969 -65.113281 37.976562 -65.113281 C -6.089844 -65.113281 -6.089844 0.894531 37.976562 0.894531 Z M 37.976562 -12.359375 C 12.359375 -12.359375 12.359375 -51.949219 37.976562 -51.949219 C 63.59375 -51.949219 63.59375 -12.359375 37.976562 -12.359375 Z M 37.976562 -12.359375 "/></g></g></g><g fill="#ffff00" fill-opacity="1"><g transform="translate(153.835664, 74.285472)"><g><path d="M 19.972656 -34.839844 L 52.394531 1.34375 L 55.800781 1.34375 L 55.800781 -63.949219 L 42.902344 -63.949219 L 42.902344 -27.765625 L 10.570312 -65.382812 L 7.164062 -65.382812 L 7.164062 0 L 19.972656 0 Z M 19.972656 -34.839844 "/></g></g></g><g fill="#ffff00" fill-opacity="1"><g transform="translate(216.888289, 74.285472)"><g><path d="M 40.304688 0 L 40.304688 -12.808594 L 19.972656 -12.808594 L 19.972656 -25.617188 L 36.8125 -25.617188 L 36.8125 -38.425781 L 19.972656 -38.425781 L 19.972656 -51.230469 L 39.230469 -51.230469 L 39.230469 -64.039062 L 7.164062 -64.039062 L 7.164062 0 Z M 40.304688 0 "/></g></g></g><g fill="#ffff00" fill-opacity="1"><g transform="translate(262.028228, 74.285472)"><g><path d="M 22.839844 0 L 35.558594 0 L 35.558594 -28.839844 L 57.949219 -64.039062 L 42.273438 -64.039062 L 29.199219 -42.007812 L 16.121094 -64.039062 L 0.539062 -64.039062 L 22.839844 -28.839844 Z M 22.839844 0 "/></g></g></g><g fill="#ffff00" fill-opacity="1"><g transform="translate(320.154871, 74.285472)"><g/></g></g><g fill="#ffff00" fill-opacity="1"><g transform="translate(345.59088, 74.285472)"><g><path d="M 7.164062 -64.039062 L 7.164062 0 L 40.304688 0 L 40.304688 -12.808594 L 19.972656 -12.808594 L 19.972656 -64.039062 Z M 7.164062 -64.039062 "/></g></g></g><g fill="#ffff00" fill-opacity="1"><g transform="translate(389.745627, 74.285472)"><g><path d="M 37.976562 0.894531 C 82.042969 0.894531 82.042969 -65.113281 37.976562 -65.113281 C -6.089844 -65.113281 -6.089844 0.894531 37.976562 0.894531 Z M 37.976562 -12.359375 C 12.359375 -12.359375 12.359375 -51.949219 37.976562 -51.949219 C 63.59375 -51.949219 63.59375 -12.359375 37.976562 -12.359375 Z M 37.976562 -12.359375 "/></g></g></g><g fill="#ffff00" fill-opacity="1"><g transform="translate(465.605793, 74.285472)"><g><path d="M 39.050781 0 L 53.558594 0 L 38.691406 -26.421875 C 57.5 -31.886719 55.261719 -64.039062 32.421875 -64.039062 L 7.164062 -64.039062 L 7.164062 0 L 19.972656 0 L 19.972656 -24.453125 L 26.152344 -24.453125 Z M 19.972656 -36.902344 L 19.972656 -51.230469 L 31.257812 -51.230469 C 39.945312 -51.230469 39.945312 -36.902344 31.257812 -36.902344 Z M 19.972656 -36.902344 "/></g></g></g><g fill="#ffff00" fill-opacity="1"><g transform="translate(520.50816, 74.285472)"><g><path d="M 19.972656 0 L 19.972656 -64.039062 L 7.164062 -64.039062 L 7.164062 0 Z M 19.972656 0 "/></g></g></g><g fill="#ffff00" fill-opacity="1"><g transform="translate(547.735435, 74.285472)"><g><path d="M 4.210938 -4.121094 C 12.898438 0.359375 20.867188 0.804688 24.453125 0.539062 C 36.453125 -0.0898438 43.796875 -8.238281 43.796875 -18.898438 C 43.796875 -29.109375 35.199219 -34.839844 25.257812 -38.511719 C 21.585938 -39.765625 18.449219 -41.378906 18.09375 -44.960938 C 17.824219 -48.542969 19.882812 -51.859375 24.453125 -52.128906 C 26.421875 -52.21875 30.453125 -52.304688 37.527344 -49.441406 L 39.140625 -61.800781 C 30.898438 -64.667969 26.511719 -64.667969 23.199219 -64.488281 C 12.539062 -63.949219 5.105469 -55.710938 5.105469 -44.960938 C 5.105469 -34.214844 14.0625 -29.109375 24.09375 -25.4375 C 27.675781 -24.183594 30.453125 -22.570312 30.722656 -18.898438 C 31.078125 -15.40625 27.855469 -12.71875 24.09375 -12.449219 C 21.136719 -12.179688 13.167969 -12.359375 5.820312 -17.554688 Z M 4.210938 -4.121094 "/></g></g></g></svg>