<?xml version="1.0" encoding="utf-8"?>
<!-- Generator: Adobe Illustrator 27.0.1, SVG Export Plug-In . SVG Version: 6.00 Build 0)  -->
<svg version="1.1" id="Camada_1" xmlns="http://www.w3.org/2000/svg" xmlns:xlink="http://www.w3.org/1999/xlink" x="0px" y="0px"
	 viewBox="0 0 500 500" style="enable-background:new 0 0 500 500;" xml:space="preserve">
<style type="text/css">
	.st0{clip-path:url(#SVGID_00000054233656397497819270000014045100304218638721_);}
	.st1{fill:#D38D5F;}
	.st2{fill:#E9C6AF;}
	.st3{fill:#FFA9A9;}
	.st4{fill:#703B51;}
</style>
<g>
	<g>
		<defs>
			<rect id="SVGID_1_" y="12.4" width="498.7" height="473"/>
		</defs>
		<clipPath id="SVGID_00000170980463329791661720000008612251811598501565_">
			<use xlink:href="#SVGID_1_"  style="overflow:visible;"/>
		</clipPath>
		<g style="clip-path:url(#SVGID_00000170980463329791661720000008612251811598501565_);">
			<path class="st1" d="M482.4,370.9c-45.6,101.6-141.8,114.4-232.7,114.4S62.6,472.5,17,370.9c-44.2-98.5,9.8-229.7,79.9-296.8
				c40.2-38.6,73.7-61.6,152.9-61.8c79,0.2,112.5,23.2,152.9,61.8C472.6,141.3,526.6,272.5,482.4,370.9z"/>
		</g>
	</g>
</g>
<path class="st2" d="M467.4,350.5C450.9,438.7,331.3,476,249.8,476c-81.7,0-201.2-37.3-217.6-125.5c-16.6-88.2,41.7-188.6,100-218.2
	s66.4,45,117.5,45s59.2-74.8,117.5-45C425.6,162,483.8,262.4,467.4,350.5z"/>
<path class="st1" d="M55.8,396.5c0,0-27.7-47.4,4.3-115.2c32-67.9,102.5-79.1,137.5-51.4c35.1,27.6,34.3,101.8-13.9,113.1
	C135.3,354.4,75.5,350.7,55.8,396.5z M443.6,396.5c0,0,27.7-47.4-4.3-115.2c-32-67.9-102.5-79.1-137.5-51.4
	c-35.1,27.6-34.4,101.8,13.9,113.2C364,354.4,423.9,350.7,443.6,396.5z"/>
<path class="st3" d="M148.7,319c0,8.8-10.7,15.8-23.9,15.8s-23.9-7.1-23.9-15.8c0-8.8,10.7-15.8,23.9-15.8S148.7,310.3,148.7,319z"
	/>
<path class="st3" d="M351,319c0,8.8,10.7,15.8,23.9,15.8c13.2,0,23.9-7.1,23.9-15.8c0-8.8-10.7-15.8-23.9-15.8
	C361.8,303.2,351,310.3,351,319z"/>
<path class="st4" d="M249.7,298.2c-14,0-36.4,2.9-38,12c-2,12.4,38,36.9,38,36.9s40-24.5,38-36.9C286,301.1,263.7,298.2,249.7,298.2
	z"/>
<path class="st4" d="M242,379.6c-14.2,0-32.9-4.6-36.2-22.9c-0.4-1.8,0.8-3.3,2.6-3.7c1.8-0.4,3.3,0.8,3.7,2.6
	c3.2,17.9,26.4,18,34.4,17.4v-50.2c0-1.8,1.4-3.2,3.2-3.2s3.2,1.4,3.2,3.2V376c0,1.5-1.2,3-2.7,3.2C247.7,379.4,245,379.6,242,379.6
	z"/>
<path class="st4" d="M257.5,379.6c-3,0-5.8-0.2-8.2-0.6c-1.5-0.2-2.7-1.5-2.7-3.2v-53.2c0-1.8,1.4-3.2,3.2-3.2s3.2,1.4,3.2,3.2V373
	c8.1,0.5,31.3,0.5,34.4-17.4c0.4-1.8,2-2.9,3.7-2.6c1.8,0.4,2.9,1.9,2.6,3.7C290.3,374.9,271.5,379.6,257.5,379.6z"/>
<path class="st4" d="M353.2,299.7c8.9,11,3.3-21.3-19.3-20.9c-20.2,0.4-23.8,28.4-18.9,22.5C329.7,283.9,341.6,285.2,353.2,299.7z"
	/>
<g>
	<path class="st4" d="M153.8,228.4c1.2,0,2.2,0.7,2.7,1.8c0.7,1.5,0,3.3-1.5,4c-28.7,12.7-39.1,33.3-39.2,33.5
		c-0.7,1.5-2.5,2.1-4,1.4c-1.5-0.7-2.1-2.5-1.4-4c0.4-0.9,11.3-22.7,42.1-36.4C153,228.5,153.4,228.4,153.8,228.4z"/>
</g>
<g>
	<path class="st4" d="M346.9,228.7c30.8,13.7,41.7,35.5,42.1,36.4c0.7,1.5,0.1,3.3-1.4,4c-1.5,0.7-3.3,0.1-4-1.4
		c-0.1-0.2-10.5-20.8-39.2-33.5c-1.5-0.7-2.2-2.5-1.5-4c0.5-1.1,1.5-1.8,2.7-1.8C346,228.4,346.4,228.5,346.9,228.7z"/>
</g>
<path class="st4" d="M181.9,299.7c8.9,11,3.3-21.3-19.3-20.9c-20.2,0.4-23.8,28.4-18.9,22.5C158.4,283.9,170.3,285.2,181.9,299.7z"
	/>
</svg>
