<svg xmlns="http://www.w3.org/2000/svg" xmlns:xlink="http://www.w3.org/1999/xlink" width="500" zoomAndPan="magnify" viewBox="0 0 375 374.999991" height="500" preserveAspectRatio="xMidYMid meet" version="1.0"><defs><clipPath id="a455044c2a"><path d="M 0 9.300781 L 374 9.300781 L 374 364.050781 L 0 364.050781 Z M 0 9.300781 " clip-rule="nonzero"/></clipPath></defs><g clip-path="url(#a455044c2a)"><path fill="#d38d5f" d="M 361.769531 278.203125 C 327.574219 354.367188 255.429688 364.011719 187.214844 364.011719 C 119 364.011719 46.945312 354.367188 12.75 278.203125 C -20.375 204.359375 20.070312 105.960938 72.660156 55.601562 C 102.839844 26.671875 127.929688 9.4375 187.304688 9.261719 C 246.589844 9.4375 271.679688 26.671875 301.949219 55.601562 C 354.449219 105.960938 394.984375 204.359375 361.769531 278.203125 Z M 361.769531 278.203125 " fill-opacity="1" fill-rule="nonzero"/></g><path fill="#e9c6af" d="M 350.519531 262.84375 C 338.109375 329.007812 248.464844 356.957031 187.304688 356.957031 C 126.054688 356.957031 36.410156 329.007812 24.089844 262.84375 C 11.675781 196.679688 55.339844 121.410156 99.089844 99.175781 C 142.839844 76.941406 148.910156 132.925781 187.214844 132.925781 C 225.519531 132.925781 231.589844 76.851562 275.339844 99.175781 C 319.179688 121.5 362.839844 196.769531 350.519531 262.84375 Z M 350.519531 262.84375 " fill-opacity="1" fill-rule="nonzero"/><path fill="#d38d5f" d="M 41.855469 297.398438 C 41.855469 297.398438 21.050781 261.863281 45.070312 210.96875 C 69.089844 160.070312 121.945312 151.679688 148.195312 172.394531 C 174.535156 193.109375 173.910156 248.738281 137.75 257.21875 C 101.5 265.792969 56.589844 263.023438 41.855469 297.398438 Z M 332.664062 297.398438 C 332.664062 297.398438 353.464844 261.863281 329.449219 210.96875 C 305.429688 160.070312 252.574219 151.679688 226.320312 172.394531 C 199.984375 193.109375 200.519531 248.738281 236.769531 257.308594 C 273.019531 265.792969 317.929688 263.023438 332.664062 297.398438 Z M 332.664062 297.398438 " fill-opacity="1" fill-rule="nonzero"/><path fill="#ffa9a9" d="M 111.5 239.273438 C 111.5 245.878906 103.464844 251.148438 93.554688 251.148438 C 83.640625 251.148438 75.605469 245.789062 75.605469 239.273438 C 75.605469 232.664062 83.640625 227.398438 93.554688 227.398438 C 103.464844 227.398438 111.5 232.753906 111.5 239.273438 Z M 111.5 239.273438 " fill-opacity="1" fill-rule="nonzero"/><path fill="#ffa9a9" d="M 263.285156 239.273438 C 263.285156 245.878906 271.324219 251.148438 281.234375 251.148438 C 291.144531 251.148438 299.179688 245.789062 299.179688 239.273438 C 299.179688 232.664062 291.144531 227.398438 281.234375 227.398438 C 271.324219 227.398438 263.285156 232.753906 263.285156 239.273438 Z M 263.285156 239.273438 " fill-opacity="1" fill-rule="nonzero"/><path fill="#703b51" d="M 134.625 212.84375 C 134.625 222.21875 129.355469 229.898438 122.839844 229.898438 C 116.320312 229.898438 111.054688 222.308594 111.054688 212.84375 C 111.054688 203.464844 116.320312 195.789062 122.839844 195.789062 C 129.355469 195.789062 134.625 203.464844 134.625 212.84375 Z M 239.894531 212.84375 C 239.894531 222.21875 245.160156 229.898438 251.679688 229.898438 C 258.199219 229.898438 263.464844 222.308594 263.464844 212.84375 C 263.464844 203.464844 258.199219 195.789062 251.679688 195.789062 C 245.160156 195.789062 239.894531 203.464844 239.894531 212.84375 Z M 239.894531 212.84375 " fill-opacity="1" fill-rule="nonzero"/><path fill="#703b51" d="M 187.304688 223.644531 C 176.769531 223.644531 159.980469 225.789062 158.820312 232.664062 C 157.304688 241.949219 187.304688 260.34375 187.304688 260.34375 C 187.304688 260.34375 217.304688 241.949219 215.785156 232.664062 C 214.535156 225.789062 197.75 223.644531 187.304688 223.644531 Z M 187.304688 223.644531 " fill-opacity="1" fill-rule="nonzero"/><path fill="#703b51" d="M 181.5 284.722656 C 170.875 284.722656 156.855469 281.238281 154.355469 267.578125 C 154.089844 266.238281 154.980469 265.078125 156.320312 264.808594 C 157.660156 264.542969 158.820312 265.433594 159.089844 266.773438 C 161.5 280.167969 178.910156 280.257812 184.894531 279.808594 L 184.894531 242.128906 C 184.894531 240.789062 185.964844 239.71875 187.304688 239.71875 C 188.644531 239.71875 189.714844 240.789062 189.714844 242.128906 L 189.714844 282.042969 C 189.714844 283.203125 188.820312 284.273438 187.660156 284.453125 C 185.785156 284.542969 183.734375 284.722656 181.5 284.722656 Z M 181.5 284.722656 " fill-opacity="1" fill-rule="nonzero"/><path fill="#703b51" d="M 193.109375 284.722656 C 190.875 284.722656 188.734375 284.542969 186.945312 284.273438 C 185.785156 284.097656 184.894531 283.113281 184.894531 281.863281 L 184.894531 241.949219 C 184.894531 240.613281 185.964844 239.539062 187.304688 239.539062 C 188.644531 239.539062 189.714844 240.613281 189.714844 241.949219 L 189.714844 279.71875 C 195.785156 280.078125 213.195312 280.078125 215.519531 266.683594 C 215.785156 265.34375 217.035156 264.542969 218.285156 264.71875 C 219.625 264.988281 220.429688 266.148438 220.25 267.488281 C 217.75 281.148438 203.644531 284.722656 193.109375 284.722656 Z M 193.109375 284.722656 " fill-opacity="1" fill-rule="nonzero"/></svg>