<?xml version="1.0" encoding="utf-8"?>
<!-- Generator: Adobe Illustrator 27.0.1, SVG Export Plug-In . SVG Version: 6.00 Build 0)  -->
<svg version="1.1" id="Camada_1" xmlns="http://www.w3.org/2000/svg" xmlns:xlink="http://www.w3.org/1999/xlink" x="0px" y="0px"
	 viewBox="0 0 500 500" style="enable-background:new 0 0 500 500;" xml:space="preserve">
<style type="text/css">
	.st0{clip-path:url(#SVGID_00000124863659424526037050000014224632432960603027_);}
	.st1{fill:#D38D5F;}
	.st2{fill:#E9C6AF;}
	.st3{fill:#FFA9A9;}
	.st4{fill:#703B51;}
</style>
<g>
	<defs>
		<rect id="SVGID_1_" y="12.4" width="498.7" height="473"/>
	</defs>
	<clipPath id="SVGID_00000021819902100698764760000015557854228323893435_">
		<use xlink:href="#SVGID_1_"  style="overflow:visible;"/>
	</clipPath>
	<g style="clip-path:url(#SVGID_00000021819902100698764760000015557854228323893435_);">
		<path class="st1" d="M482.4,370.9c-45.6,101.6-141.8,114.4-232.7,114.4S62.6,472.5,17,370.9c-44.2-98.5,9.8-229.7,79.9-296.8
			c40.2-38.6,73.7-61.6,152.9-61.8c79,0.2,112.5,23.2,152.9,61.8C472.6,141.3,526.6,272.5,482.4,370.9z"/>
	</g>
</g>
<path class="st2" d="M467.4,350.5c-16.5,88.2-136.1,125.5-217.6,125.5c-81.7,0-201.2-37.3-217.6-125.5
	c-16.6-88.2,41.7-188.6,100-218.2s66.4,45,117.5,45s59.2-74.8,117.5-45C425.6,162,483.8,262.4,467.4,350.5z"/>
<path class="st1" d="M55.8,396.5c0,0-27.7-47.4,4.3-115.2c32-67.9,102.5-79.1,137.5-51.4c35.1,27.6,34.3,101.8-13.9,113.1
	C135.3,354.4,75.5,350.7,55.8,396.5z M443.6,396.5c0,0,27.7-47.4-4.3-115.2c-32-67.9-102.5-79.1-137.5-51.4
	c-35.1,27.6-34.4,101.8,13.9,113.2C364,354.4,423.9,350.7,443.6,396.5z"/>
<path class="st3" d="M148.7,319c0,8.8-10.7,15.8-23.9,15.8c-13.2,0-23.9-7.1-23.9-15.8c0-8.8,10.7-15.8,23.9-15.8
	C138,303.2,148.7,310.3,148.7,319z"/>
<path class="st3" d="M351,319c0,8.8,10.7,15.8,23.9,15.8c13.2,0,23.9-7.1,23.9-15.8c0-8.8-10.7-15.8-23.9-15.8
	C361.8,303.2,351,310.3,351,319z"/>
<ellipse class="st4" cx="163.8" cy="283.8" rx="15.7" ry="22.7"/>
<ellipse class="st4" cx="335.6" cy="283.8" rx="15.7" ry="22.7"/>
<path class="st4" d="M249.7,298.2c-14,0-36.4,2.9-38,12c-2,12.4,38,36.9,38,36.9s40-24.5,38-36.9C286,301.1,263.7,298.2,249.7,298.2
	z"/>
<path class="st4" d="M242,379.3c0.1-2.5,1.1-4.7,4.5-6.2v-50.2c0-1.8,1.4-3.2,3.2-3.2c1.8,0,3.2,1.4,3.2,3.2v53.2
	c0,1.5-1.2,3-2.7,3.2C247.7,379.4,245,379.3,242,379.3z"/>
<path class="st4" d="M257.4,379.3c-3,0-5.7,0.1-8.1-0.3c-1.5-0.2-2.7-1.5-2.7-3.2v-53.2c0-1.8,1.4-3.2,3.2-3.2
	c1.8,0,3.2,1.4,3.2,3.2V373C255.8,374.7,256.8,377.1,257.4,379.3z"/>
<path class="st4" d="M250.2,373.2c1.5,0.2-3.7,6.2-3.7,6.2c-8-0.6-31.2-0.5-34.4,17.4c-0.4,1.8-1.9,3-3.7,2.6
	c-1.8-0.4-3-1.9-2.6-3.7c3.3-18.2,22-22.9,36.2-22.9C245,372.9,247.7,373.1,250.2,373.2z"/>
<path class="st4" d="M293.7,395.8c0.2,1.8-0.8,3.3-2.6,3.7c-1.7,0.2-3.3-0.8-3.7-2.6C284.3,379,261,379,253,379.5
	c0,0-5.2-5.8-3.7-6.1c2.4-0.4,5.2-0.6,8.2-0.6C271.5,372.8,290.3,377.6,293.7,395.8z"/>
<polygon class="st4" points="245.2,372.9 254.8,372.9 253,379.5 246.5,379.4 "/>
<g>
	<path class="st4" d="M114,264.1c-1.2,0-2.2-0.7-2.7-1.8c-0.7-1.5,0-3.3,1.5-4c28.7-12.7,39.1-33.3,39.2-33.5c0.7-1.5,2.5-2.1,4-1.4
		c1.5,0.7,2.1,2.5,1.4,4c-0.4,0.9-11.3,22.7-42.1,36.4C114.8,264,114.4,264.1,114,264.1z"/>
</g>
<g>
	<path class="st4" d="M385.3,264.1c1.2,0,2.2-0.7,2.7-1.8c0.7-1.5,0-3.3-1.5-4c-28.7-12.7-39.1-33.3-39.2-33.5
		c-0.7-1.5-2.5-2.1-4-1.4c-1.5,0.7-2.1,2.5-1.4,4c0.4,0.9,11.3,22.7,42.1,36.4C384.5,264,384.9,264.1,385.3,264.1z"/>
</g>
</svg>
